<?xml version="1.0" encoding="UTF-8"?>
<!DOCTYPE svg PUBLIC "-//W3C//DTD SVG 1.1//EN" "http://www.w3.org/Graphics/SVG/1.1/DTD/svg11.dtd">
<!-- Creator: CorelDRAW Standard 2024 (Evaluation Version) -->
<svg xmlns="http://www.w3.org/2000/svg" xml:space="preserve" width="200mm" height="210mm" version="1.1" style="shape-rendering:geometricPrecision; text-rendering:geometricPrecision; image-rendering:optimizeQuality; fill-rule:evenodd; clip-rule:evenodd"
viewBox="0 0 20000 21000"
 xmlns:xlink="http://www.w3.org/1999/xlink"
 xmlns:xodm="http://www.corel.com/coreldraw/odm/2003">
 <defs>
  <style type="text/css">
   <![CDATA[
    .fil2 {fill:#0BB64E}
    .fil0 {fill:#0DB14E}
    .fil1 {fill:white}
   ]]>
  </style>
 </defs>
 <g id="Layer_x0020_1">
  <metadata id="CorelCorpID_0Corel-Layer"/>
  <g id="_2387434479008">
   <path class="fil0" d="M9992.4 4915.6c3092.81,0 5600,2507.19 5600,5600 0,3092.81 -2507.19,5600 -5600,5600 -3092.81,0 -5600,-2507.19 -5600,-5600 0,-3092.81 2507.19,-5600 5600,-5600z"/>
   <path class="fil1" d="M10044.59 5362.58c2817.16,0 5100.83,2283.67 5100.83,5100.83 0,2817.12 -2283.67,5100.79 -5100.83,5100.79 -2817.12,0 -5100.79,-2283.67 -5100.79,-5100.79 0,-2817.16 2283.67,-5100.83 5100.79,-5100.83z"/>
   <path class="fil2" d="M9318.27 11893.58c2135.21,-2597.59 3202.79,-3896.39 3202.79,-3896.39 322.77,-26.92 451.52,100.5 386.26,382.3 -2269.47,2862.5 -3422.97,4261.97 -3460.53,4198.35 -641.53,-399.52 -1451.1,-1050.45 -2428.62,-1952.74 11.58,-304.33 126.09,-429.92 343.49,-376.71 1380.49,1123.06 2032.71,1671.45 1956.61,1645.19z"/>
  </g>
 </g>
</svg>
