<?xml version="1.0" encoding="UTF-8"?>
<!DOCTYPE svg PUBLIC "-//W3C//DTD SVG 1.1//EN" "http://www.w3.org/Graphics/SVG/1.1/DTD/svg11.dtd">
<!-- Creator: CorelDRAW Standard 2024 (Evaluation Version) -->
<svg xmlns="http://www.w3.org/2000/svg" xml:space="preserve" width="200mm" height="210mm" version="1.1" style="shape-rendering:geometricPrecision; text-rendering:geometricPrecision; image-rendering:optimizeQuality; fill-rule:evenodd; clip-rule:evenodd"
viewBox="0 0 20000 21000"
 xmlns:xlink="http://www.w3.org/1999/xlink"
 xmlns:xodm="http://www.corel.com/coreldraw/odm/2003">
 <defs>
  <style type="text/css">
   <![CDATA[
    .fil0 {fill:#B8C917}
    .fil1 {fill:#FDFEDC}
   ]]>
  </style>
 </defs>
 <g id="Layer_x0020_1">
  <metadata id="CorelCorpID_0Corel-Layer"/>
  <g id="_2387326592400">
   <path class="fil0" d="M10153.13 6679.33l-468.42 8.79c-6.4,494.8 36.88,3788.14 -31.19,3994.45 -104.69,317.3 -1789.17,1590.69 -1804.15,1955.53 -13.32,323.39 227.33,476.17 704.7,-49.27 372.23,-409.67 1527.93,-1428.26 1625.08,-1690.89 184.59,-498.9 23.13,-3639.54 -26.02,-4218.61z"/>
   <g>
    <path class="fil1" d="M14204.99 13579.73c-56.95,-420.19 205.17,-740.98 356.55,-1081.18 99.96,-224.76 271.49,-1128.36 678.68,-694.32 222,236.61 -137.8,890.62 -247.57,1114.61 -395.19,805.92 -405.79,747.07 -787.66,660.89zm278.23 622.34c277.89,-268.73 130.27,-0.53 353.05,-375.02 342.54,-575.94 66.85,-73.82 499.36,-297.89 -47.4,-296.94 42.31,-55.46 -271.84,-243.66l136.13 -457.98c285.77,68.08 75.08,-49.27 229.36,141.89 48.97,60.51 41.08,128.06 95.57,236.52l67.55 -199.34 -44.77 -527.71c-21.99,-762.4 -95.4,-562.7 -130.97,-974.72 -928.71,-60.67 -247.84,-269.86 -633.56,-455.63 -286.39,475.83 230.93,505.25 -371.98,741.51 2.02,128.66 50.29,525.36 -35.92,598.65 -9.63,8.19 -31.88,28.21 -43.62,38.05l-163.74 132.57c-122.91,115.96 -82.79,62.33 -140.78,201.7l-115.03 476.26c240.39,1041.57 405.79,375.28 571.19,964.8z"/>
    <path class="fil0" d="M14904.87 10029.42c147.53,800.61 985.12,512.56 319.5,-1288.28 -208.68,-564.52 -700.76,-474.43 -577.85,71.04l258.35 1217.24z"/>
    <path class="fil0" d="M14204.99 13579.73c381.87,86.18 392.47,145.03 787.66,-660.89 109.77,-223.99 469.57,-878 247.57,-1114.61 -407.19,-434.04 -578.72,469.56 -678.68,694.32 -151.38,340.2 -413.5,660.99 -356.55,1081.18z"/>
   </g>
   <path class="fil0" d="M13554.86 6993.15c-1054.94,72.51 -1366.29,-172.36 -1359.02,459.63 461.68,242.96 2203.63,212.41 2368.68,8.18 3.68,-4.52 404.39,-1640.74 -20.41,-2070.43 -480.34,50.75 -396.68,496.54 -417.88,1220.64 -388.36,-144.77 -785.65,-923.27 -2471.18,-1451.15 -1151.67,-360.66 -2401.28,-311.74 -3493.98,77.99 -1282.55,457.46 -2082.57,1113.57 -2809.26,2156.88 -33.02,47.45 -172.14,240.18 -210.95,302.68 -538.25,866.25 -919.07,2544.61 -670.97,3725.81 148.4,706.6 186.07,910.82 491.47,1495.54 514.33,984.73 877.54,1512.18 1817.99,2188.92 1745.89,1256.15 4233.81,1355.91 6160.7,198.21 243.8,-146.5 399.48,-231.9 587.22,-377.28 141.31,-109.42 336.75,-239.82 278.23,-461.02 -123.52,-467.38 -615.95,0.52 -814.82,140.67 -2979.29,2100.3 -7193.3,550.69 -7947.15,-3212.72 -684.2,-3415.82 2546.44,-6489.87 5911.9,-5820.8 869.31,172.8 2292.64,796.96 2599.43,1418.25z"/>
  </g>
 </g>
</svg>
